<?xml version="1.0" encoding="UTF-8" standalone="no"?>
<!DOCTYPE svg PUBLIC "-//W3C//DTD SVG 1.1//EN"
 "http://www.w3.org/Graphics/SVG/1.1/DTD/svg11.dtd">
<!-- Generated by graphviz version 2.42.3 (20191010.1750)
 -->
<!-- Title: snakemake_dag Pages: 1 -->
<svg width="354pt" height="404pt"
 viewBox="0.00 0.00 354.47 404.00" xmlns="http://www.w3.org/2000/svg" xmlns:xlink="http://www.w3.org/1999/xlink">
<g id="graph0" class="graph" transform="scale(1 1) rotate(0) translate(4 400)">
<title>snakemake_dag</title>
<polygon fill="white" stroke="transparent" points="-4,4 -4,-400 350.47,-400 350.47,4 -4,4"/>
<!-- 0 -->
<g id="node1" class="node">
<title>0</title>
<path fill="none" stroke="#59d856" stroke-width="2" d="M53,-36C53,-36 23,-36 23,-36 17,-36 11,-30 11,-24 11,-24 11,-12 11,-12 11,-6 17,0 23,0 23,0 53,0 53,0 59,0 65,-6 65,-12 65,-12 65,-24 65,-24 65,-30 59,-36 53,-36"/>
<text text-anchor="middle" x="38" y="-15.5" font-family="sans" font-size="10.00">all</text>
</g>
<!-- 1 -->
<g id="node2" class="node">
<title>1</title>
<path fill="none" stroke="#bed856" stroke-width="2" d="M151,-396C151,-396 107,-396 107,-396 101,-396 95,-390 95,-384 95,-384 95,-372 95,-372 95,-366 101,-360 107,-360 107,-360 151,-360 151,-360 157,-360 163,-366 163,-372 163,-372 163,-384 163,-384 163,-390 157,-396 151,-396"/>
<text text-anchor="middle" x="129" y="-375.5" font-family="sans" font-size="10.00">star_index</text>
</g>
<!-- 1&#45;&gt;0 -->
<g id="edge3" class="edge">
<title>1&#45;&gt;0</title>
<path fill="none" stroke="grey" stroke-width="2" d="M96.78,-359.87C58.57,-336.95 0,-292.45 0,-235 0,-235 0,-235 0,-161 0,-119.63 15.23,-73.72 26.41,-45.61"/>
<polygon fill="grey" stroke="grey" stroke-width="2" points="29.76,-46.67 30.31,-36.09 23.28,-44.02 29.76,-46.67"/>
</g>
<!-- 7 -->
<g id="node8" class="node">
<title>7</title>
<path fill="none" stroke="#56d8c1" stroke-width="2" d="M240.5,-324C240.5,-324 199.5,-324 199.5,-324 193.5,-324 187.5,-318 187.5,-312 187.5,-312 187.5,-300 187.5,-300 187.5,-294 193.5,-288 199.5,-288 199.5,-288 240.5,-288 240.5,-288 246.5,-288 252.5,-294 252.5,-300 252.5,-300 252.5,-312 252.5,-312 252.5,-318 246.5,-324 240.5,-324"/>
<text text-anchor="middle" x="220" y="-303.5" font-family="sans" font-size="10.00">star_align</text>
</g>
<!-- 1&#45;&gt;7 -->
<g id="edge11" class="edge">
<title>1&#45;&gt;7</title>
<path fill="none" stroke="grey" stroke-width="2" d="M151.49,-359.7C162.96,-350.88 177.06,-340.03 189.48,-330.47"/>
<polygon fill="grey" stroke="grey" stroke-width="2" points="191.97,-332.98 197.76,-324.1 187.7,-327.43 191.97,-332.98"/>
</g>
<!-- 2 -->
<g id="node3" class="node">
<title>2</title>
<path fill="none" stroke="#56d88a" stroke-width="2" d="M124,-324C124,-324 74,-324 74,-324 68,-324 62,-318 62,-312 62,-312 62,-300 62,-300 62,-294 68,-288 74,-288 74,-288 124,-288 124,-288 130,-288 136,-294 136,-300 136,-300 136,-312 136,-312 136,-318 130,-324 124,-324"/>
<text text-anchor="middle" x="99" y="-303.5" font-family="sans" font-size="10.00">rsem_index</text>
</g>
<!-- 2&#45;&gt;0 -->
<g id="edge2" class="edge">
<title>2&#45;&gt;0</title>
<path fill="none" stroke="grey" stroke-width="2" d="M80.84,-287.59C72.04,-277.99 62.26,-265.32 57,-252 29.34,-181.89 31.81,-90.9 35.25,-46.21"/>
<polygon fill="grey" stroke="grey" stroke-width="2" points="38.75,-46.4 36.11,-36.13 31.78,-45.8 38.75,-46.4"/>
</g>
<!-- 9 -->
<g id="node10" class="node">
<title>9</title>
<path fill="none" stroke="#56c1d8" stroke-width="2" d="M180,-252C180,-252 150,-252 150,-252 144,-252 138,-246 138,-240 138,-240 138,-228 138,-228 138,-222 144,-216 150,-216 150,-216 180,-216 180,-216 186,-216 192,-222 192,-228 192,-228 192,-240 192,-240 192,-246 186,-252 180,-252"/>
<text text-anchor="middle" x="165" y="-231.5" font-family="sans" font-size="10.00">rsem</text>
</g>
<!-- 2&#45;&gt;9 -->
<g id="edge13" class="edge">
<title>2&#45;&gt;9</title>
<path fill="none" stroke="grey" stroke-width="2" d="M115.31,-287.7C123.31,-279.22 133.07,-268.86 141.82,-259.58"/>
<polygon fill="grey" stroke="grey" stroke-width="2" points="144.56,-261.78 148.87,-252.1 139.47,-256.98 144.56,-261.78"/>
</g>
<!-- 3 -->
<g id="node4" class="node">
<title>3</title>
<path fill="none" stroke="#d85656" stroke-width="2" d="M251.5,-108C251.5,-108 114.5,-108 114.5,-108 108.5,-108 102.5,-102 102.5,-96 102.5,-96 102.5,-84 102.5,-84 102.5,-78 108.5,-72 114.5,-72 114.5,-72 251.5,-72 251.5,-72 257.5,-72 263.5,-78 263.5,-84 263.5,-84 263.5,-96 263.5,-96 263.5,-102 257.5,-108 251.5,-108"/>
<text text-anchor="middle" x="183" y="-87.5" font-family="sans" font-size="10.00">generate_drop_sample_annot</text>
</g>
<!-- 3&#45;&gt;0 -->
<g id="edge1" class="edge">
<title>3&#45;&gt;0</title>
<path fill="none" stroke="grey" stroke-width="2" d="M147.53,-71.88C125.37,-61.18 96.91,-47.44 74.56,-36.65"/>
<polygon fill="grey" stroke="grey" stroke-width="2" points="75.91,-33.42 65.38,-32.22 72.87,-39.72 75.91,-33.42"/>
</g>
<!-- 4 -->
<g id="node5" class="node">
<title>4</title>
<path fill="none" stroke="#d88d56" stroke-width="2" d="M207,-180C207,-180 177,-180 177,-180 171,-180 165,-174 165,-168 165,-168 165,-156 165,-156 165,-150 171,-144 177,-144 177,-144 207,-144 207,-144 213,-144 219,-150 219,-156 219,-156 219,-168 219,-168 219,-174 213,-180 207,-180"/>
<text text-anchor="middle" x="192" y="-159.5" font-family="sans" font-size="10.00">multiqc</text>
</g>
<!-- 4&#45;&gt;3 -->
<g id="edge4" class="edge">
<title>4&#45;&gt;3</title>
<path fill="none" stroke="grey" stroke-width="2" d="M189.78,-143.7C188.78,-135.98 187.59,-126.71 186.49,-118.11"/>
<polygon fill="grey" stroke="grey" stroke-width="2" points="189.95,-117.58 185.2,-108.1 183,-118.47 189.95,-117.58"/>
</g>
<!-- 5 -->
<g id="node6" class="node">
<title>5</title>
<path fill="none" stroke="#88d856" stroke-width="2" d="M108,-252C108,-252 78,-252 78,-252 72,-252 66,-246 66,-240 66,-240 66,-228 66,-228 66,-222 72,-216 78,-216 78,-216 108,-216 108,-216 114,-216 120,-222 120,-228 120,-228 120,-240 120,-240 120,-246 114,-252 108,-252"/>
<text text-anchor="middle" x="93" y="-231.5" font-family="sans" font-size="10.00">fastqc</text>
</g>
<!-- 5&#45;&gt;4 -->
<g id="edge6" class="edge">
<title>5&#45;&gt;4</title>
<path fill="none" stroke="grey" stroke-width="2" d="M117.22,-215.88C129.92,-206.89 145.66,-195.76 159.42,-186.03"/>
<polygon fill="grey" stroke="grey" stroke-width="2" points="161.54,-188.82 167.69,-180.19 157.5,-183.11 161.54,-188.82"/>
</g>
<!-- 6 -->
<g id="node7" class="node">
<title>6</title>
<path fill="none" stroke="#d8bc56" stroke-width="2" d="M320,-396C320,-396 254,-396 254,-396 248,-396 242,-390 242,-384 242,-384 242,-372 242,-372 242,-366 248,-360 254,-360 254,-360 320,-360 320,-360 326,-360 332,-366 332,-372 332,-372 332,-384 332,-384 332,-390 326,-396 320,-396"/>
<text text-anchor="middle" x="287" y="-375.5" font-family="sans" font-size="10.00">trim_galore_pe</text>
</g>
<!-- 6&#45;&gt;4 -->
<g id="edge5" class="edge">
<title>6&#45;&gt;4</title>
<path fill="none" stroke="grey" stroke-width="2" d="M300.87,-359.98C324.44,-328.84 366.82,-261.73 335,-216 311.29,-181.93 262.99,-169.71 229.11,-165.36"/>
<polygon fill="grey" stroke="grey" stroke-width="2" points="229.42,-161.87 219.1,-164.24 228.65,-168.83 229.42,-161.87"/>
</g>
<!-- 6&#45;&gt;7 -->
<g id="edge10" class="edge">
<title>6&#45;&gt;7</title>
<path fill="none" stroke="grey" stroke-width="2" d="M270.44,-359.7C262.32,-351.22 252.41,-340.86 243.53,-331.58"/>
<polygon fill="grey" stroke="grey" stroke-width="2" points="245.81,-328.91 236.37,-324.1 240.76,-333.75 245.81,-328.91"/>
</g>
<!-- 7&#45;&gt;4 -->
<g id="edge7" class="edge">
<title>7&#45;&gt;4</title>
<path fill="none" stroke="grey" stroke-width="2" d="M216.62,-287.87C211.83,-263.56 203.01,-218.82 197.33,-190.01"/>
<polygon fill="grey" stroke="grey" stroke-width="2" points="200.76,-189.32 195.39,-180.19 193.89,-190.68 200.76,-189.32"/>
</g>
<!-- 8 -->
<g id="node9" class="node">
<title>8</title>
<path fill="none" stroke="#568ad8" stroke-width="2" d="M313.5,-252C313.5,-252 260.5,-252 260.5,-252 254.5,-252 248.5,-246 248.5,-240 248.5,-240 248.5,-228 248.5,-228 248.5,-222 254.5,-216 260.5,-216 260.5,-216 313.5,-216 313.5,-216 319.5,-216 325.5,-222 325.5,-228 325.5,-228 325.5,-240 325.5,-240 325.5,-246 319.5,-252 313.5,-252"/>
<text text-anchor="middle" x="287" y="-231.5" font-family="sans" font-size="10.00">mark_dupes</text>
</g>
<!-- 7&#45;&gt;8 -->
<g id="edge12" class="edge">
<title>7&#45;&gt;8</title>
<path fill="none" stroke="grey" stroke-width="2" d="M236.56,-287.7C244.68,-279.22 254.59,-268.86 263.47,-259.58"/>
<polygon fill="grey" stroke="grey" stroke-width="2" points="266.24,-261.75 270.63,-252.1 261.19,-256.91 266.24,-261.75"/>
</g>
<!-- 7&#45;&gt;9 -->
<g id="edge14" class="edge">
<title>7&#45;&gt;9</title>
<path fill="none" stroke="grey" stroke-width="2" d="M206.4,-287.7C199.88,-279.39 191.93,-269.28 184.75,-260.14"/>
<polygon fill="grey" stroke="grey" stroke-width="2" points="187.37,-257.81 178.44,-252.1 181.87,-262.13 187.37,-257.81"/>
</g>
<!-- 8&#45;&gt;4 -->
<g id="edge9" class="edge">
<title>8&#45;&gt;4</title>
<path fill="none" stroke="grey" stroke-width="2" d="M263.52,-215.7C251.44,-206.8 236.55,-195.82 223.48,-186.2"/>
<polygon fill="grey" stroke="grey" stroke-width="2" points="225.34,-183.22 215.21,-180.1 221.19,-188.85 225.34,-183.22"/>
</g>
<!-- 9&#45;&gt;4 -->
<g id="edge8" class="edge">
<title>9&#45;&gt;4</title>
<path fill="none" stroke="grey" stroke-width="2" d="M171.67,-215.7C174.71,-207.81 178.38,-198.3 181.76,-189.55"/>
<polygon fill="grey" stroke="grey" stroke-width="2" points="185.07,-190.69 185.4,-180.1 178.54,-188.17 185.07,-190.69"/>
</g>
</g>
</svg>
