<?xml version="1.0" encoding="UTF-8" standalone="no"?>
<!DOCTYPE svg PUBLIC "-//W3C//DTD SVG 1.1//EN"
 "http://www.w3.org/Graphics/SVG/1.1/DTD/svg11.dtd">
<!-- Generated by graphviz version 2.42.3 (20191010.1750)
 -->
<!-- Title: snakemake_dag Pages: 1 -->
<svg width="363pt" height="332pt"
 viewBox="0.00 0.00 363.48 332.00" xmlns="http://www.w3.org/2000/svg" xmlns:xlink="http://www.w3.org/1999/xlink">
<g id="graph0" class="graph" transform="scale(1 1) rotate(0) translate(4 328)">
<title>snakemake_dag</title>
<polygon fill="white" stroke="transparent" points="-4,4 -4,-328 359.48,-328 359.48,4 -4,4"/>
<!-- 0 -->
<g id="node1" class="node">
<title>0</title>
<path fill="none" stroke="#70d856" stroke-width="2" d="M341,-36C341,-36 311,-36 311,-36 305,-36 299,-30 299,-24 299,-24 299,-12 299,-12 299,-6 305,0 311,0 311,0 341,0 341,0 347,0 353,-6 353,-12 353,-12 353,-24 353,-24 353,-30 347,-36 341,-36"/>
<text text-anchor="middle" x="326" y="-15.5" font-family="sans" font-size="10.00">all</text>
</g>
<!-- 1 -->
<g id="node2" class="node">
<title>1</title>
<path fill="none" stroke="#56c9d8" stroke-width="2" d="M169,-108C169,-108 139,-108 139,-108 133,-108 127,-102 127,-96 127,-96 127,-84 127,-84 127,-78 133,-72 139,-72 139,-72 169,-72 169,-72 175,-72 181,-78 181,-84 181,-84 181,-96 181,-96 181,-102 175,-108 169,-108"/>
<text text-anchor="middle" x="154" y="-87.5" font-family="sans" font-size="10.00">multiqc</text>
</g>
<!-- 1&#45;&gt;0 -->
<g id="edge2" class="edge">
<title>1&#45;&gt;0</title>
<path fill="none" stroke="grey" stroke-width="2" d="M181.25,-77.91C210.44,-66.03 256.92,-47.11 289.31,-33.93"/>
<polygon fill="grey" stroke="grey" stroke-width="2" points="290.93,-37.05 298.87,-30.04 288.29,-30.57 290.93,-37.05"/>
</g>
<!-- 2 -->
<g id="node3" class="node">
<title>2</title>
<path fill="none" stroke="#afd856" stroke-width="2" d="M42,-180C42,-180 12,-180 12,-180 6,-180 0,-174 0,-168 0,-168 0,-156 0,-156 0,-150 6,-144 12,-144 12,-144 42,-144 42,-144 48,-144 54,-150 54,-156 54,-156 54,-168 54,-168 54,-174 48,-180 42,-180"/>
<text text-anchor="middle" x="27" y="-159.5" font-family="sans" font-size="10.00">fastqc</text>
</g>
<!-- 2&#45;&gt;1 -->
<g id="edge6" class="edge">
<title>2&#45;&gt;1</title>
<path fill="none" stroke="grey" stroke-width="2" d="M54.24,-145.98C72.83,-135.74 97.64,-122.07 117.87,-110.92"/>
<polygon fill="grey" stroke="grey" stroke-width="2" points="119.73,-113.88 126.8,-105.99 116.35,-107.75 119.73,-113.88"/>
</g>
<!-- 3 -->
<g id="node4" class="node">
<title>3</title>
<path fill="none" stroke="#5692d8" stroke-width="2" d="M143,-324C143,-324 77,-324 77,-324 71,-324 65,-318 65,-312 65,-312 65,-300 65,-300 65,-294 71,-288 77,-288 77,-288 143,-288 143,-288 149,-288 155,-294 155,-300 155,-300 155,-312 155,-312 155,-318 149,-324 143,-324"/>
<text text-anchor="middle" x="110" y="-303.5" font-family="sans" font-size="10.00">trim_galore_pe</text>
</g>
<!-- 3&#45;&gt;1 -->
<g id="edge8" class="edge">
<title>3&#45;&gt;1</title>
<path fill="none" stroke="grey" stroke-width="2" d="M110.9,-287.79C112.77,-258.02 118.13,-195.19 132,-144 134.4,-135.15 137.91,-125.82 141.43,-117.49"/>
<polygon fill="grey" stroke="grey" stroke-width="2" points="144.67,-118.83 145.5,-108.27 138.26,-116.01 144.67,-118.83"/>
</g>
<!-- 4 -->
<g id="node5" class="node">
<title>4</title>
<path fill="none" stroke="#56d873" stroke-width="2" d="M207.5,-252C207.5,-252 166.5,-252 166.5,-252 160.5,-252 154.5,-246 154.5,-240 154.5,-240 154.5,-228 154.5,-228 154.5,-222 160.5,-216 166.5,-216 166.5,-216 207.5,-216 207.5,-216 213.5,-216 219.5,-222 219.5,-228 219.5,-228 219.5,-240 219.5,-240 219.5,-246 213.5,-252 207.5,-252"/>
<text text-anchor="middle" x="187" y="-231.5" font-family="sans" font-size="10.00">star_align</text>
</g>
<!-- 3&#45;&gt;4 -->
<g id="edge10" class="edge">
<title>3&#45;&gt;4</title>
<path fill="none" stroke="grey" stroke-width="2" d="M129.03,-287.7C138.54,-279.05 150.21,-268.45 160.57,-259.03"/>
<polygon fill="grey" stroke="grey" stroke-width="2" points="163.14,-261.42 168.19,-252.1 158.43,-256.24 163.14,-261.42"/>
</g>
<!-- 4&#45;&gt;1 -->
<g id="edge7" class="edge">
<title>4&#45;&gt;1</title>
<path fill="none" stroke="grey" stroke-width="2" d="M165.29,-215.79C155.24,-206.41 144.36,-193.9 139,-180 131.28,-159.99 136.11,-135.93 142.27,-117.87"/>
<polygon fill="grey" stroke="grey" stroke-width="2" points="145.64,-118.86 145.86,-108.27 139.08,-116.41 145.64,-118.86"/>
</g>
<!-- 6 -->
<g id="node7" class="node">
<title>6</title>
<path fill="none" stroke="#d8cb56" stroke-width="2" d="M213.5,-180C213.5,-180 160.5,-180 160.5,-180 154.5,-180 148.5,-174 148.5,-168 148.5,-168 148.5,-156 148.5,-156 148.5,-150 154.5,-144 160.5,-144 160.5,-144 213.5,-144 213.5,-144 219.5,-144 225.5,-150 225.5,-156 225.5,-156 225.5,-168 225.5,-168 225.5,-174 219.5,-180 213.5,-180"/>
<text text-anchor="middle" x="187" y="-159.5" font-family="sans" font-size="10.00">mark_dupes</text>
</g>
<!-- 4&#45;&gt;6 -->
<g id="edge11" class="edge">
<title>4&#45;&gt;6</title>
<path fill="none" stroke="grey" stroke-width="2" d="M187,-215.7C187,-207.98 187,-198.71 187,-190.11"/>
<polygon fill="grey" stroke="grey" stroke-width="2" points="190.5,-190.1 187,-180.1 183.5,-190.1 190.5,-190.1"/>
</g>
<!-- 7 -->
<g id="node8" class="node">
<title>7</title>
<path fill="none" stroke="#d88d56" stroke-width="2" d="M286,-180C286,-180 256,-180 256,-180 250,-180 244,-174 244,-168 244,-168 244,-156 244,-156 244,-150 250,-144 256,-144 256,-144 286,-144 286,-144 292,-144 298,-150 298,-156 298,-156 298,-168 298,-168 298,-174 292,-180 286,-180"/>
<text text-anchor="middle" x="271" y="-159.5" font-family="sans" font-size="10.00">rsem</text>
</g>
<!-- 4&#45;&gt;7 -->
<g id="edge13" class="edge">
<title>4&#45;&gt;7</title>
<path fill="none" stroke="grey" stroke-width="2" d="M207.76,-215.7C218.24,-206.97 231.11,-196.24 242.5,-186.75"/>
<polygon fill="grey" stroke="grey" stroke-width="2" points="245.03,-189.19 250.47,-180.1 240.55,-183.82 245.03,-189.19"/>
</g>
<!-- 5 -->
<g id="node6" class="node">
<title>5</title>
<path fill="none" stroke="#d85656" stroke-width="2" d="M257,-324C257,-324 213,-324 213,-324 207,-324 201,-318 201,-312 201,-312 201,-300 201,-300 201,-294 207,-288 213,-288 213,-288 257,-288 257,-288 263,-288 269,-294 269,-300 269,-300 269,-312 269,-312 269,-318 263,-324 257,-324"/>
<text text-anchor="middle" x="235" y="-303.5" font-family="sans" font-size="10.00">star_index</text>
</g>
<!-- 5&#45;&gt;0 -->
<g id="edge1" class="edge">
<title>5&#45;&gt;0</title>
<path fill="none" stroke="grey" stroke-width="2" d="M269.41,-296.12C291.7,-288.41 319.1,-274.79 333,-252 372.69,-186.96 350.22,-91.57 335.55,-45.65"/>
<polygon fill="grey" stroke="grey" stroke-width="2" points="338.85,-44.5 332.38,-36.11 332.21,-46.7 338.85,-44.5"/>
</g>
<!-- 5&#45;&gt;4 -->
<g id="edge9" class="edge">
<title>5&#45;&gt;4</title>
<path fill="none" stroke="grey" stroke-width="2" d="M223.13,-287.7C217.5,-279.47 210.65,-269.48 204.43,-260.42"/>
<polygon fill="grey" stroke="grey" stroke-width="2" points="207.27,-258.37 198.73,-252.1 201.5,-262.33 207.27,-258.37"/>
</g>
<!-- 6&#45;&gt;1 -->
<g id="edge5" class="edge">
<title>6&#45;&gt;1</title>
<path fill="none" stroke="grey" stroke-width="2" d="M178.84,-143.7C175.09,-135.73 170.55,-126.1 166.38,-117.26"/>
<polygon fill="grey" stroke="grey" stroke-width="2" points="169.49,-115.66 162.06,-108.1 163.16,-118.64 169.49,-115.66"/>
</g>
<!-- 7&#45;&gt;1 -->
<g id="edge4" class="edge">
<title>7&#45;&gt;1</title>
<path fill="none" stroke="grey" stroke-width="2" d="M243.86,-144.76C227.88,-135.2 207.47,-122.99 190.14,-112.62"/>
<polygon fill="grey" stroke="grey" stroke-width="2" points="191.77,-109.52 181.39,-107.39 188.18,-115.53 191.77,-109.52"/>
</g>
<!-- 8 -->
<g id="node9" class="node">
<title>8</title>
<path fill="none" stroke="#56d8a9" stroke-width="2" d="M312,-252C312,-252 262,-252 262,-252 256,-252 250,-246 250,-240 250,-240 250,-228 250,-228 250,-222 256,-216 262,-216 262,-216 312,-216 312,-216 318,-216 324,-222 324,-228 324,-228 324,-240 324,-240 324,-246 318,-252 312,-252"/>
<text text-anchor="middle" x="287" y="-231.5" font-family="sans" font-size="10.00">rsem_index</text>
</g>
<!-- 8&#45;&gt;0 -->
<g id="edge3" class="edge">
<title>8&#45;&gt;0</title>
<path fill="none" stroke="grey" stroke-width="2" d="M294.76,-215.67C299.02,-205.48 304.02,-192.23 307,-180 318.26,-133.81 322.93,-78.49 324.81,-46.19"/>
<polygon fill="grey" stroke="grey" stroke-width="2" points="328.31,-46.33 325.34,-36.16 321.32,-45.96 328.31,-46.33"/>
</g>
<!-- 8&#45;&gt;7 -->
<g id="edge12" class="edge">
<title>8&#45;&gt;7</title>
<path fill="none" stroke="grey" stroke-width="2" d="M283.04,-215.7C281.28,-207.98 279.16,-198.71 277.2,-190.11"/>
<polygon fill="grey" stroke="grey" stroke-width="2" points="280.55,-189.07 274.91,-180.1 273.73,-190.63 280.55,-189.07"/>
</g>
</g>
</svg>
