<?xml version="1.0" encoding="UTF-8" standalone="no"?>
<!DOCTYPE svg PUBLIC "-//W3C//DTD SVG 1.1//EN"
 "http://www.w3.org/Graphics/SVG/1.1/DTD/svg11.dtd">
<!-- Generated by graphviz version 2.42.3 (20191010.1750)
 -->
<!-- Title: snakemake_dag Pages: 1 -->
<svg width="330pt" height="404pt"
 viewBox="0.00 0.00 330.00 404.00" xmlns="http://www.w3.org/2000/svg" xmlns:xlink="http://www.w3.org/1999/xlink">
<g id="graph0" class="graph" transform="scale(1 1) rotate(0) translate(4 400)">
<title>snakemake_dag</title>
<polygon fill="white" stroke="transparent" points="-4,4 -4,-400 326,-400 326,4 -4,4"/>
<!-- 0 -->
<g id="node1" class="node">
<title>0</title>
<path fill="none" stroke="#70d856" stroke-width="2" d="M205,-36C205,-36 175,-36 175,-36 169,-36 163,-30 163,-24 163,-24 163,-12 163,-12 163,-6 169,0 175,0 175,0 205,0 205,0 211,0 217,-6 217,-12 217,-12 217,-24 217,-24 217,-30 211,-36 205,-36"/>
<text text-anchor="middle" x="190" y="-15.5" font-family="sans" font-size="10.00">done</text>
</g>
<!-- 1 -->
<g id="node2" class="node">
<title>1</title>
<path fill="none" stroke="#ced856" stroke-width="2" d="M149,-180C149,-180 119,-180 119,-180 113,-180 107,-174 107,-168 107,-168 107,-156 107,-156 107,-150 113,-144 119,-144 119,-144 149,-144 149,-144 155,-144 161,-150 161,-156 161,-156 161,-168 161,-168 161,-174 155,-180 149,-180"/>
<text text-anchor="middle" x="134" y="-159.5" font-family="sans" font-size="10.00">multiqc</text>
</g>
<!-- 1&#45;&gt;0 -->
<g id="edge2" class="edge">
<title>1&#45;&gt;0</title>
<path fill="none" stroke="grey" stroke-width="2" d="M137.45,-143.83C141.44,-125.58 148.78,-96.08 159,-72 162.92,-62.78 168.14,-53.18 173.17,-44.73"/>
<polygon fill="grey" stroke="grey" stroke-width="2" points="176.24,-46.43 178.5,-36.08 170.28,-42.76 176.24,-46.43"/>
</g>
<!-- 2 -->
<g id="node3" class="node">
<title>2</title>
<path fill="none" stroke="#d8b456" stroke-width="2" d="M145,-252C145,-252 115,-252 115,-252 109,-252 103,-246 103,-240 103,-240 103,-228 103,-228 103,-222 109,-216 115,-216 115,-216 145,-216 145,-216 151,-216 157,-222 157,-228 157,-228 157,-240 157,-240 157,-246 151,-252 145,-252"/>
<text text-anchor="middle" x="130" y="-231.5" font-family="sans" font-size="10.00">fastqc</text>
</g>
<!-- 2&#45;&gt;1 -->
<g id="edge4" class="edge">
<title>2&#45;&gt;1</title>
<path fill="none" stroke="grey" stroke-width="2" d="M130.99,-215.7C131.43,-207.98 131.96,-198.71 132.45,-190.11"/>
<polygon fill="grey" stroke="grey" stroke-width="2" points="135.95,-190.29 133.02,-180.1 128.96,-189.89 135.95,-190.29"/>
</g>
<!-- 3 -->
<g id="node4" class="node">
<title>3</title>
<path fill="none" stroke="#56d8c9" stroke-width="2" d="M78,-396C78,-396 12,-396 12,-396 6,-396 0,-390 0,-384 0,-384 0,-372 0,-372 0,-366 6,-360 12,-360 12,-360 78,-360 78,-360 84,-360 90,-366 90,-372 90,-372 90,-384 90,-384 90,-390 84,-396 78,-396"/>
<text text-anchor="middle" x="45" y="-375.5" font-family="sans" font-size="10.00">trim_galore_pe</text>
</g>
<!-- 3&#45;&gt;1 -->
<g id="edge7" class="edge">
<title>3&#45;&gt;1</title>
<path fill="none" stroke="grey" stroke-width="2" d="M35.73,-359.95C20.15,-328.76 -6.85,-261.57 22,-216 38.35,-190.17 71.07,-176.68 96.94,-169.8"/>
<polygon fill="grey" stroke="grey" stroke-width="2" points="97.94,-173.16 106.83,-167.39 96.29,-166.35 97.94,-173.16"/>
</g>
<!-- 4 -->
<g id="node5" class="node">
<title>4</title>
<path fill="none" stroke="#d85656" stroke-width="2" d="M190.5,-324C190.5,-324 149.5,-324 149.5,-324 143.5,-324 137.5,-318 137.5,-312 137.5,-312 137.5,-300 137.5,-300 137.5,-294 143.5,-288 149.5,-288 149.5,-288 190.5,-288 190.5,-288 196.5,-288 202.5,-294 202.5,-300 202.5,-300 202.5,-312 202.5,-312 202.5,-318 196.5,-324 190.5,-324"/>
<text text-anchor="middle" x="170" y="-303.5" font-family="sans" font-size="10.00">star_align</text>
</g>
<!-- 3&#45;&gt;4 -->
<g id="edge8" class="edge">
<title>3&#45;&gt;4</title>
<path fill="none" stroke="grey" stroke-width="2" d="M75.58,-359.88C92.07,-350.64 112.62,-339.13 130.34,-329.21"/>
<polygon fill="grey" stroke="grey" stroke-width="2" points="132.29,-332.13 139.3,-324.19 128.87,-326.02 132.29,-332.13"/>
</g>
<!-- 4&#45;&gt;1 -->
<g id="edge3" class="edge">
<title>4&#45;&gt;1</title>
<path fill="none" stroke="grey" stroke-width="2" d="M171.69,-287.85C172.93,-269.61 173.31,-240.13 166,-216 163.12,-206.48 158.14,-196.92 152.95,-188.59"/>
<polygon fill="grey" stroke="grey" stroke-width="2" points="155.77,-186.51 147.34,-180.09 149.93,-190.37 155.77,-186.51"/>
</g>
<!-- 6 -->
<g id="node7" class="node">
<title>6</title>
<path fill="none" stroke="#56d89a" stroke-width="2" d="M278.5,-252C278.5,-252 225.5,-252 225.5,-252 219.5,-252 213.5,-246 213.5,-240 213.5,-240 213.5,-228 213.5,-228 213.5,-222 219.5,-216 225.5,-216 225.5,-216 278.5,-216 278.5,-216 284.5,-216 290.5,-222 290.5,-228 290.5,-228 290.5,-240 290.5,-240 290.5,-246 284.5,-252 278.5,-252"/>
<text text-anchor="middle" x="252" y="-231.5" font-family="sans" font-size="10.00">mark_dupes</text>
</g>
<!-- 4&#45;&gt;6 -->
<g id="edge10" class="edge">
<title>4&#45;&gt;6</title>
<path fill="none" stroke="grey" stroke-width="2" d="M190.27,-287.7C200.5,-278.97 213.06,-268.24 224.18,-258.75"/>
<polygon fill="grey" stroke="grey" stroke-width="2" points="226.63,-261.26 231.96,-252.1 222.09,-255.94 226.63,-261.26"/>
</g>
<!-- 7 -->
<g id="node8" class="node">
<title>7</title>
<path fill="none" stroke="#56d86b" stroke-width="2" d="M73,-252C73,-252 43,-252 43,-252 37,-252 31,-246 31,-240 31,-240 31,-228 31,-228 31,-222 37,-216 43,-216 43,-216 73,-216 73,-216 79,-216 85,-222 85,-228 85,-228 85,-240 85,-240 85,-246 79,-252 73,-252"/>
<text text-anchor="middle" x="58" y="-231.5" font-family="sans" font-size="10.00">rsem</text>
</g>
<!-- 4&#45;&gt;7 -->
<g id="edge11" class="edge">
<title>4&#45;&gt;7</title>
<path fill="none" stroke="grey" stroke-width="2" d="M142.6,-287.88C127.85,-278.66 109.47,-267.17 93.62,-257.26"/>
<polygon fill="grey" stroke="grey" stroke-width="2" points="95.45,-254.28 85.12,-251.95 91.74,-260.22 95.45,-254.28"/>
</g>
<!-- 5 -->
<g id="node6" class="node">
<title>5</title>
<path fill="none" stroke="#9fd856" stroke-width="2" d="M192,-396C192,-396 148,-396 148,-396 142,-396 136,-390 136,-384 136,-384 136,-372 136,-372 136,-366 142,-360 148,-360 148,-360 192,-360 192,-360 198,-360 204,-366 204,-372 204,-372 204,-384 204,-384 204,-390 198,-396 192,-396"/>
<text text-anchor="middle" x="170" y="-375.5" font-family="sans" font-size="10.00">star_index</text>
</g>
<!-- 5&#45;&gt;4 -->
<g id="edge9" class="edge">
<title>5&#45;&gt;4</title>
<path fill="none" stroke="grey" stroke-width="2" d="M170,-359.7C170,-351.98 170,-342.71 170,-334.11"/>
<polygon fill="grey" stroke="grey" stroke-width="2" points="173.5,-334.1 170,-324.1 166.5,-334.1 173.5,-334.1"/>
</g>
<!-- 6&#45;&gt;1 -->
<g id="edge6" class="edge">
<title>6&#45;&gt;1</title>
<path fill="none" stroke="grey" stroke-width="2" d="M223.13,-215.88C207.24,-206.45 187.37,-194.66 170.42,-184.61"/>
<polygon fill="grey" stroke="grey" stroke-width="2" points="171.74,-181.32 161.35,-179.23 168.17,-187.34 171.74,-181.32"/>
</g>
<!-- 10 -->
<g id="node11" class="node">
<title>10</title>
<path fill="none" stroke="#d88556" stroke-width="2" d="M307,-180C307,-180 193,-180 193,-180 187,-180 181,-174 181,-168 181,-168 181,-156 181,-156 181,-150 187,-144 193,-144 193,-144 307,-144 307,-144 313,-144 319,-150 319,-156 319,-156 319,-168 319,-168 319,-174 313,-180 307,-180"/>
<text text-anchor="middle" x="250" y="-159.5" font-family="sans" font-size="10.00">remove_alt_chr_for_drop</text>
</g>
<!-- 6&#45;&gt;10 -->
<g id="edge14" class="edge">
<title>6&#45;&gt;10</title>
<path fill="none" stroke="grey" stroke-width="2" d="M251.51,-215.7C251.29,-207.98 251.02,-198.71 250.77,-190.11"/>
<polygon fill="grey" stroke="grey" stroke-width="2" points="254.27,-190 250.49,-180.1 247.28,-190.2 254.27,-190"/>
</g>
<!-- 7&#45;&gt;1 -->
<g id="edge5" class="edge">
<title>7&#45;&gt;1</title>
<path fill="none" stroke="grey" stroke-width="2" d="M76.79,-215.7C86.17,-207.05 97.68,-196.45 107.91,-187.03"/>
<polygon fill="grey" stroke="grey" stroke-width="2" points="110.45,-189.45 115.43,-180.1 105.7,-184.3 110.45,-189.45"/>
</g>
<!-- 8 -->
<g id="node9" class="node">
<title>8</title>
<path fill="none" stroke="#5682d8" stroke-width="2" d="M93,-324C93,-324 43,-324 43,-324 37,-324 31,-318 31,-312 31,-312 31,-300 31,-300 31,-294 37,-288 43,-288 43,-288 93,-288 93,-288 99,-288 105,-294 105,-300 105,-300 105,-312 105,-312 105,-318 99,-324 93,-324"/>
<text text-anchor="middle" x="68" y="-303.5" font-family="sans" font-size="10.00">rsem_index</text>
</g>
<!-- 8&#45;&gt;7 -->
<g id="edge12" class="edge">
<title>8&#45;&gt;7</title>
<path fill="none" stroke="grey" stroke-width="2" d="M65.53,-287.7C64.43,-279.98 63.1,-270.71 61.87,-262.11"/>
<polygon fill="grey" stroke="grey" stroke-width="2" points="65.32,-261.51 60.44,-252.1 58.39,-262.5 65.32,-261.51"/>
</g>
<!-- 9 -->
<g id="node10" class="node">
<title>9</title>
<path fill="none" stroke="#56b1d8" stroke-width="2" d="M310,-108C310,-108 180,-108 180,-108 174,-108 168,-102 168,-96 168,-96 168,-84 168,-84 168,-78 174,-72 180,-72 180,-72 310,-72 310,-72 316,-72 322,-78 322,-84 322,-84 322,-96 322,-96 322,-102 316,-108 310,-108"/>
<text text-anchor="middle" x="245" y="-87.5" font-family="sans" font-size="10.00">generate_drop_sample_files</text>
</g>
<!-- 9&#45;&gt;0 -->
<g id="edge1" class="edge">
<title>9&#45;&gt;0</title>
<path fill="none" stroke="grey" stroke-width="2" d="M231.4,-71.7C224.88,-63.39 216.93,-53.28 209.75,-44.14"/>
<polygon fill="grey" stroke="grey" stroke-width="2" points="212.37,-41.81 203.44,-36.1 206.87,-46.13 212.37,-41.81"/>
</g>
<!-- 10&#45;&gt;9 -->
<g id="edge13" class="edge">
<title>10&#45;&gt;9</title>
<path fill="none" stroke="grey" stroke-width="2" d="M248.76,-143.7C248.21,-135.98 247.55,-126.71 246.94,-118.11"/>
<polygon fill="grey" stroke="grey" stroke-width="2" points="250.43,-117.83 246.22,-108.1 243.44,-118.33 250.43,-117.83"/>
</g>
</g>
</svg>
