<?xml version="1.0" encoding="UTF-8" standalone="no"?>
<!DOCTYPE svg PUBLIC "-//W3C//DTD SVG 1.1//EN"
 "http://www.w3.org/Graphics/SVG/1.1/DTD/svg11.dtd">
<!-- Generated by graphviz version 2.42.3 (20191010.1750)
 -->
<!-- Title: snakemake_dag Pages: 1 -->
<svg width="445pt" height="548pt"
 viewBox="0.00 0.00 444.58 548.00" xmlns="http://www.w3.org/2000/svg" xmlns:xlink="http://www.w3.org/1999/xlink">
<g id="graph0" class="graph" transform="scale(1 1) rotate(0) translate(4 544)">
<title>snakemake_dag</title>
<polygon fill="white" stroke="transparent" points="-4,4 -4,-544 440.58,-544 440.58,4 -4,4"/>
<!-- 1 -->
<g id="node1" class="node">
<title>1</title>
<ellipse fill="none" stroke="#d8b456" cx="217.34" cy="-450" rx="38.99" ry="18"/>
<text text-anchor="middle" x="217.34" y="-446.3" font-family="sans" font-size="14.00">fastqc</text>
</g>
<!-- 3 -->
<g id="node3" class="node">
<title>3</title>
<ellipse fill="none" stroke="#56d86b" cx="286.34" cy="-378" rx="55.79" ry="18"/>
<text text-anchor="middle" x="286.34" y="-374.3" font-family="sans" font-size="14.00">star_align</text>
</g>
<!-- 1&#45;&gt;3 -->
<g id="edge3" class="edge">
<title>1&#45;&gt;3</title>
<path fill="none" stroke="grey" stroke-width="2" d="M232.99,-433.12C241.87,-424.12 253.14,-412.68 263.03,-402.65"/>
<polygon fill="grey" stroke="grey" stroke-width="2" points="265.74,-404.89 270.26,-395.31 260.75,-399.97 265.74,-404.89"/>
</g>
<!-- 2 -->
<g id="node2" class="node">
<title>2</title>
<ellipse fill="none" stroke="#9fd856" cx="355.34" cy="-450" rx="81.49" ry="18"/>
<text text-anchor="middle" x="355.34" y="-446.3" font-family="sans" font-size="14.00">trim_galore_pe</text>
</g>
<!-- 2&#45;&gt;3 -->
<g id="edge4" class="edge">
<title>2&#45;&gt;3</title>
<path fill="none" stroke="grey" stroke-width="2" d="M338.63,-432.05C329.95,-423.24 319.19,-412.33 309.69,-402.69"/>
<polygon fill="grey" stroke="grey" stroke-width="2" points="311.92,-399.97 302.41,-395.31 306.94,-404.89 311.92,-399.97"/>
</g>
<!-- 4 -->
<g id="node4" class="node">
<title>4</title>
<ellipse fill="none" stroke="#d88556" cx="226.34" cy="-306" rx="68.49" ry="18"/>
<text text-anchor="middle" x="226.34" y="-302.3" font-family="sans" font-size="14.00">mark_dupes</text>
</g>
<!-- 3&#45;&gt;4 -->
<g id="edge5" class="edge">
<title>3&#45;&gt;4</title>
<path fill="none" stroke="grey" stroke-width="2" d="M272.12,-360.41C264.75,-351.82 255.62,-341.16 247.45,-331.63"/>
<polygon fill="grey" stroke="grey" stroke-width="2" points="250.04,-329.27 240.87,-323.96 244.72,-333.83 250.04,-329.27"/>
</g>
<!-- 5 -->
<g id="node5" class="node">
<title>5</title>
<ellipse fill="none" stroke="#5682d8" cx="347.34" cy="-306" rx="34.39" ry="18"/>
<text text-anchor="middle" x="347.34" y="-302.3" font-family="sans" font-size="14.00">rsem</text>
</g>
<!-- 3&#45;&gt;5 -->
<g id="edge6" class="edge">
<title>3&#45;&gt;5</title>
<path fill="none" stroke="grey" stroke-width="2" d="M300.79,-360.41C308.5,-351.57 318.12,-340.53 326.61,-330.79"/>
<polygon fill="grey" stroke="grey" stroke-width="2" points="329.47,-332.83 333.4,-322.99 324.2,-328.23 329.47,-332.83"/>
</g>
<!-- 6 -->
<g id="node6" class="node">
<title>6</title>
<ellipse fill="none" stroke="#70d856" cx="142.34" cy="-234" rx="142.17" ry="18"/>
<text text-anchor="middle" x="142.34" y="-230.3" font-family="sans" font-size="14.00">generate_drop_sample_files</text>
</g>
<!-- 4&#45;&gt;6 -->
<g id="edge7" class="edge">
<title>4&#45;&gt;6</title>
<path fill="none" stroke="grey" stroke-width="2" d="M206.43,-288.41C195.71,-279.48 182.3,-268.3 170.52,-258.49"/>
<polygon fill="grey" stroke="grey" stroke-width="2" points="172.61,-255.67 162.68,-251.96 168.13,-261.05 172.61,-255.67"/>
</g>
<!-- 10 -->
<g id="node10" class="node">
<title>10</title>
<ellipse fill="none" stroke="#ced856" cx="347.34" cy="-234" rx="44.69" ry="18"/>
<text text-anchor="middle" x="347.34" y="-230.3" font-family="sans" font-size="14.00">multiqc</text>
</g>
<!-- 4&#45;&gt;10 -->
<g id="edge10" class="edge">
<title>4&#45;&gt;10</title>
<path fill="none" stroke="grey" stroke-width="2" d="M253.49,-289.29C271.42,-278.92 295.02,-265.27 314.07,-254.24"/>
<polygon fill="grey" stroke="grey" stroke-width="2" points="315.84,-257.27 322.74,-249.23 312.33,-251.21 315.84,-257.27"/>
</g>
<!-- 5&#45;&gt;10 -->
<g id="edge11" class="edge">
<title>5&#45;&gt;10</title>
<path fill="none" stroke="grey" stroke-width="2" d="M347.34,-287.7C347.34,-279.98 347.34,-270.71 347.34,-262.11"/>
<polygon fill="grey" stroke="grey" stroke-width="2" points="350.84,-262.1 347.34,-252.1 343.84,-262.1 350.84,-262.1"/>
</g>
<!-- 7 -->
<g id="node7" class="node">
<title>7</title>
<ellipse fill="none" stroke="#56d89a" cx="167.34" cy="-162" rx="127.28" ry="18"/>
<text text-anchor="middle" x="167.34" y="-158.3" font-family="sans" font-size="14.00">remove_alt_chr_for_drop</text>
</g>
<!-- 6&#45;&gt;7 -->
<g id="edge8" class="edge">
<title>6&#45;&gt;7</title>
<path fill="none" stroke="grey" stroke-width="2" d="M148.52,-215.7C151.33,-207.81 154.73,-198.3 157.86,-189.55"/>
<polygon fill="grey" stroke="grey" stroke-width="2" points="161.16,-190.7 161.23,-180.1 154.57,-188.34 161.16,-190.7"/>
</g>
<!-- 8 -->
<g id="node8" class="node">
<title>8</title>
<ellipse fill="none" stroke="#56d89a" cx="216.34" cy="-90" rx="52.79" ry="18"/>
<text text-anchor="middle" x="216.34" y="-86.3" font-family="sans" font-size="14.00">run_drop</text>
</g>
<!-- 7&#45;&gt;8 -->
<g id="edge9" class="edge">
<title>7&#45;&gt;8</title>
<path fill="none" stroke="grey" stroke-width="2" d="M179.2,-144.05C185.04,-135.71 192.19,-125.49 198.66,-116.25"/>
<polygon fill="grey" stroke="grey" stroke-width="2" points="201.72,-117.99 204.59,-107.79 195.98,-113.97 201.72,-117.99"/>
</g>
<!-- 11 -->
<g id="node11" class="node">
<title>11</title>
<polygon fill="none" stroke="black" points="283.34,-36 229.34,-36 229.34,0 283.34,0 283.34,-36"/>
<text text-anchor="middle" x="256.34" y="-14.3" font-family="sans" font-size="14.00">done</text>
</g>
<!-- 8&#45;&gt;11 -->
<g id="edge12" class="edge">
<title>8&#45;&gt;11</title>
<path fill="none" stroke="grey" stroke-width="2" d="M226.02,-72.05C230.62,-64.01 236.22,-54.2 241.35,-45.23"/>
<polygon fill="grey" stroke="grey" stroke-width="2" points="244.54,-46.69 246.47,-36.28 238.47,-43.22 244.54,-46.69"/>
</g>
<!-- 9 -->
<g id="node9" class="node">
<title>9</title>
<polygon fill="none" stroke="black" points="381.34,-540 191.34,-540 191.34,-504 381.34,-504 381.34,-540"/>
<text text-anchor="middle" x="286.34" y="-518.3" font-family="sans" font-size="14.00">input raw RNA&#45;seq fastq</text>
</g>
<!-- 9&#45;&gt;1 -->
<g id="edge1" class="edge">
<title>9&#45;&gt;1</title>
<path fill="none" stroke="grey" stroke-width="2" d="M269.28,-503.7C260.46,-494.75 249.58,-483.71 240.06,-474.06"/>
<polygon fill="grey" stroke="grey" stroke-width="2" points="242.3,-471.34 232.78,-466.67 237.31,-476.25 242.3,-471.34"/>
</g>
<!-- 9&#45;&gt;2 -->
<g id="edge2" class="edge">
<title>9&#45;&gt;2</title>
<path fill="none" stroke="grey" stroke-width="2" d="M303.39,-503.7C311.83,-495.14 322.16,-484.66 331.38,-475.3"/>
<polygon fill="grey" stroke="grey" stroke-width="2" points="333.95,-477.68 338.48,-468.1 328.96,-472.77 333.95,-477.68"/>
</g>
<!-- 10&#45;&gt;11 -->
<g id="edge13" class="edge">
<title>10&#45;&gt;11</title>
<path fill="none" stroke="grey" stroke-width="2" d="M340.2,-216.21C324.42,-179.11 286.5,-89.92 267.53,-45.32"/>
<polygon fill="grey" stroke="grey" stroke-width="2" points="270.7,-43.84 263.57,-36.01 264.26,-46.58 270.7,-43.84"/>
</g>
</g>
</svg>
